<svg xmlns="http://www.w3.org/2000/svg" width="195" height="35" viewBox="0 0 195 35">
  <g id="Gruppe_536" data-name="Gruppe 536" transform="translate(0 0.086)">
    <path id="Pfad_668" data-name="Pfad 668" d="M1.02,26.466a9.508,9.508,0,0,0,5.557,2.112c2.3,0,3.519-1.456,3.519-3.67,0-2.112-1.053-3.319-3.717-4.777A10.619,10.619,0,0,1,.3,10.123C.3,4.34,3.453-.086,8.681-.086a9.733,9.733,0,0,1,5.656,1.711L13.22,7.81A7.763,7.763,0,0,0,8.583,6.2,3.043,3.043,0,0,0,5.36,9.468c0,2.163,1.25,3.117,4.111,4.777,3.913,2.213,5.755,5.331,5.755,10.109,0,5.681-2.862,10.509-8.945,10.509A10.546,10.546,0,0,1,0,32.8Z" fill="#fff"/>
    <path id="Pfad_669" data-name="Pfad 669" d="M34.887,33.406A10.07,10.07,0,0,1,29.2,34.864c-7.662,0-11.608-7.291-11.608-16.946,0-11.568,5.393-18,12.1-18A9.3,9.3,0,0,1,35.15,1.423L34.131,7.508a7.734,7.734,0,0,0-4.209-1.257c-3.98,0-7.07,3.67-7.07,11.214,0,6.787,2.63,11.062,7.1,11.062a8.769,8.769,0,0,0,4.176-1.106Z" fill="#fff"/>
    <path id="Pfad_670" data-name="Pfad 670" d="M38.172.921a27.14,27.14,0,0,1,6.774-.7c3.092,0,5.3.906,6.775,2.715a12.522,12.522,0,0,1,2.367,7.844,14.355,14.355,0,0,1-2.038,8.046,8.314,8.314,0,0,1-7.2,3.569,8.393,8.393,0,0,1-1.71-.15V34.36H38.172Zm4.966,15.387a5.134,5.134,0,0,0,1.677.2c2.664,0,4.308-2.062,4.308-5.531C49.123,7.86,47.709,6,45.209,6a5.741,5.741,0,0,0-2.071.3Z" transform="translate(-0.002 0)" fill="#fff"/>
    <path id="Pfad_671" data-name="Pfad 671" d="M60.465,25.661l-1.579,8.7h-5.2L60.465.469h6.577L73.915,34.36H68.521l-1.71-8.7Zm5.623-5.732-1.381-7.19c-.4-2.013-.789-4.527-1.118-6.538h-.066c-.329,2.012-.658,4.576-1.02,6.538l-1.314,7.19Z" transform="translate(-0.002)" fill="#fff"/>
    <path id="Pfad_672" data-name="Pfad 672" d="M92.326,33.406a10.071,10.071,0,0,1-5.688,1.458c-7.662,0-11.609-7.291-11.609-16.946,0-11.568,5.394-18,12.1-18a9.3,9.3,0,0,1,5.458,1.509L91.57,7.508a7.729,7.729,0,0,0-4.209-1.257c-3.979,0-7.07,3.67-7.07,11.214,0,6.787,2.63,11.062,7.1,11.062a8.766,8.766,0,0,0,4.176-1.106Z" transform="translate(-0.003)" fill="#fff"/>
    <path id="Pfad_673" data-name="Pfad 673" d="M108.8,20.029h-8.156v8.046h9.109V34.36H95.611V.469h13.681V6.754h-8.649v7.04H108.8Z" transform="translate(-0.004)" fill="#fff"/>
    <path id="Pfad_674" data-name="Pfad 674" d="M113.169.469H118.2V27.923h8.814V34.36H113.169Z" transform="translate(-0.005)" fill="#fff"/>
    <path id="Pfad_675" data-name="Pfad 675" d="M149.011,17.062c0,11.115-4.407,17.852-10.884,17.852-6.577,0-10.427-7.592-10.427-17.249,0-10.157,4.243-17.751,10.786-17.751C145.295-.086,149.011,7.708,149.011,17.062ZM133,17.515c0,6.638,2.039,11.314,5.393,11.314,3.387,0,5.327-4.927,5.327-11.516C143.716,11.228,141.81,6,138.355,6,134.969,6,133,10.927,133,17.515Z" transform="translate(-0.006)" fill="#fff"/>
    <path id="Pfad_676" data-name="Pfad 676" d="M170.809,32.8a17.316,17.316,0,0,1-7.4,1.91,10.132,10.132,0,0,1-9.012-4.576c-2.039-2.917-3.156-7.341-3.123-12.319.034-11.265,5.393-17.7,12.66-17.7a10.819,10.819,0,0,1,6.15,1.659l-1.053,6.136a8.735,8.735,0,0,0-5.163-1.458c-4.176,0-7.332,3.62-7.332,10.962,0,6.991,2.861,11.113,6.971,11.113a4.635,4.635,0,0,0,2.467-.5v-7.09h-3.42V14.95h8.254Z" transform="translate(-0.008)" fill="#fff"/>
    <path id="Pfad_677" data-name="Pfad 677" d="M195.008,17.062c0,11.115-4.4,17.852-10.885,17.852-6.577,0-10.424-7.592-10.424-17.249,0-10.157,4.242-17.751,10.786-17.751C191.291-.086,195.008,7.708,195.008,17.062Zm-16.016.453c0,6.638,2.039,11.314,5.394,11.314,3.387,0,5.328-4.927,5.328-11.516,0-6.085-1.907-11.313-5.36-11.313C180.967,6,178.992,10.927,178.992,17.515Z" transform="translate(-0.008)" fill="#fff"/>
  </g>
</svg>
