<svg id="Layer_1" data-name="Layer 1" xmlns="http://www.w3.org/2000/svg" width="48.06" height="48.06" viewBox="0 0 48.06 48.06">
  <g id="Gruppe_462" data-name="Gruppe 462">
    <circle id="Ellipse_5" data-name="Ellipse 5" cx="24.03" cy="24.03" r="24.03" fill="#de2153"/>
  </g>
  <g id="Gruppe_497" data-name="Gruppe 497" transform="matrix(-0.259, 0.966, -0.966, -0.259, 41.9, 13.412)">
    <g id="Gruppe_463" data-name="Gruppe 463">
      <path id="Pfad_650" data-name="Pfad 650" d="M41.02,23.724c-.071-2.73-3.435-5.163-7.59-5.163A9.069,9.069,0,0,0,27.517,20.6,9.071,9.071,0,0,0,21.6,18.561c-4.155,0-7.518,2.433-7.59,5.163H14c0,.017.005.032.005.049S14,23.8,14,23.81c0,.077.029.134.034.208.372,6.957,13.376,9.81,13.376,9.81s13.2-2.849,13.586-9.8c.007-.078.038-.139.038-.219,0-.013-.005-.026-.005-.038s.005-.032.005-.049Z" transform="translate(-14 -18.561)" fill="#fff"/>
    </g>
  </g>
  <g id="Gruppe_498" data-name="Gruppe 498" transform="matrix(-0.259, -0.966, 0.966, -0.259, 14.154, 39.524)">
    <g id="Gruppe_463-2" data-name="Gruppe 463">
      <path id="Pfad_650-2" data-name="Pfad 650" d="M41.02,23.724c-.071-2.73-3.435-5.163-7.59-5.163A9.069,9.069,0,0,0,27.517,20.6,9.071,9.071,0,0,0,21.6,18.561c-4.155,0-7.518,2.433-7.59,5.163H14c0,.017.005.032.005.049S14,23.8,14,23.81c0,.077.029.134.034.208.372,6.957,13.376,9.81,13.376,9.81s13.2-2.849,13.586-9.8c.007-.078.038-.139.038-.219,0-.013-.005-.026-.005-.038s.005-.032.005-.049Z" transform="translate(-14 -18.561)" fill="#fff"/>
    </g>
  </g>
</svg>
